<?xml version="1.0" encoding="UTF-8" standalone="no"?>
<!-- Created with Pixodesk SVG (https://pixodesk.com) -->
<svg xmlns="http://www.w3.org/2000/svg" viewBox="0 0 400 400" text-rendering="geometricPrecision" shape-rendering="geometricPrecision" fill="none" stroke="#003a73" stroke-width="2">
  <rect fill="#fffed4" stroke="#00600f" stroke-width="0" transform="translate(104.2844, 311.6524)scale(1.591, 2.0031)translate(-151.7395, -151.7395)" x="105.4526" y="12.4157" width="212.2381" height="167.3031"/>
  <rect fill="#47a3ff" stroke="#003a73" stroke-width="3" transform="translate(83.1056, 100.1879)scale(1.591, 2.0031)translate(-46.188, -15.544)" rx="14" ry="14" y="10.0666" width="65.7291" height="21.0215"/>
  <rect fill="#ff475b" stroke="#c00013" stroke-width="3" transform="translate(220.8683, 174.6505)scale(1.591, 2.0031)translate(-46.188, -15.544)" rx="14" ry="14" x="17.3951" y="-3.8489" width="57.2163" height="20.8884"/>
  <rect fill="#64c062" stroke="#00600f" stroke-width="3" transform="translate(184.0448, 322.096)scale(1.591, 2.0031)translate(-46.188, -15.544)" rx="14" ry="14" width="76.9802" height="26.943"/>
  <ellipse fill="#ffd89c" stroke="#003a73" stroke-width="0" transform="translate(93.8191, 255.315)scale(1.591, 1.571)" cx="-8.6595" cy="-21.6869" rx="34.2717" ry="34.2717"/>
  <rect fill="#ff8d99" stroke="#c00013" transform="translate(367.7805, 83.2974)scale(1.591, 2.0031)translate(-46.188, -15.544)" rx="14" ry="14" width="56.2548" height="18.9319"/>
  <rect fill="#ff8d99" stroke="#c00013" transform="translate(370.6474, 151.2076)scale(1.591, 2.0031)translate(-46.188, -15.544)" rx="14" ry="14" width="58.0312" height="19.5297"/>
  <rect fill="#ff8d99" stroke="#c00013" transform="translate(371.9392, 228.3321)scale(1.591, 2.0031)translate(-46.188, -15.544)" rx="14" ry="14" width="56.3059" height="18.9491"/>
  <path fill="none" stroke="#e64152" stroke-width="2" transform="translate(134.4105, 219.7411)scale(1.591, 2.0031)" d="M0,0C18.6528,0.2961,5.6255,-31.9763,24.8705,-31.6802"/>
  <path fill="none" stroke="#e64152" transform="translate(253.8415, 124.5353)scale(1.591, 2.0031)" d="M24.4071,-26.5488C17.5974,-26.2527,13.5122,-19.309,14.3577,-8.9598C14.8946,-2.3882,13.1897,18.7212,8.8823,18.6529"/>
  <path fill="none" stroke="#e64152" transform="translate(268.915, 161.8995)scale(1.591, 2.0031)" d="M0,0C9.8979,0,9.1613,-1.3228,11.2106,-5.885C12.3489,-8.4193,12.9364,-10.9741,17.1658,-10.7626"/>
  <path fill="none" stroke="#e64152" transform="translate(267.5018, 162.4925)scale(1.591, 2.0031)" d="M0,0C10.9548,-0.5922,6.8453,26.4829,18.9846,27.3711"/>
  <path fill="none" stroke="#00600f" transform="translate(83.2414, 274.946)scale(1.591, 2.0031)" d="M0,0C1.4803,20.1333,16.5802,-0.5922,18.0607,17.4685"/>
  <path fill="none" stroke="#003a73" transform="translate(43.915, 132.8041)scale(1.591, 2.0031)" d="M0,0C1.1844,14.8039,23.6861,3.5529,24.2783,17.4685"/>
  <path fill="none" stroke="#003a73" transform="translate(78.3124, 222.6499)" data-px-shape="type: spiral; radius-increment: 8.4248; start-angle: 51.2773; turns-count: 5" d="M0,0C0.3638,0.4538,-1.0926,1.505,-1.6432,1.3175C-3.295,0.7553,-3.6012,-1.8335,-2.6351,-3.2865C-1.0248,-5.708,2.6792,-5.7944,4.9297,-3.9526C8.0803,-1.3741,8.0068,3.5586,5.2702,6.5729C1.7516,10.4485,-4.4521,10.2253,-8.2161,6.5877C-12.8166,2.1417,-12.4466,-5.353,-7.9052,-9.8594C-2.5382,-15.1851,6.258,-14.6691,11.5026,-9.2228C17.554,-2.9385,16.8925,7.1657,10.5403,13.1458C3.3412,19.9233,-8.0751,19.1163,-14.789,11.8579C-22.2928,3.7455,-21.3404,-8.9858,-13.1754,-16.4323C-4.151,-24.6626,9.8973,-23.5647,18.0755,-14.4929C27.0325,-4.5572,25.7891,10.8096,15.8105,19.7187C4.9641,29.4026,-11.7223,28.0137,-21.3619,17.128C-31.7728,5.3715,-30.2384,-12.6354,-18.4456,-23.0052C-5.7792,-34.143,13.5489,-32.4631,24.6484,-19.7631C36.5134,-6.1873,34.6879,14.4626,21.0806,26.2916C6.5955,38.8837,-15.3766,36.9127,-27.9348,22.3982C-41.2542,7.004,-39.1375,-16.2907,-23.7157,-29.5781C-7.4127,-43.6247,17.205,-41.3624,31.2213,-25.0333C45.9952,-7.8215,43.5873,18.1194,26.3508,32.8645"/>
</svg>