<?xml version="1.0" encoding="UTF-8" standalone="no"?>
<!-- Created with Pixodesk SVG (https://pixodesk.com) -->
<svg xmlns="http://www.w3.org/2000/svg" viewBox="0 0 400 400" text-rendering="geometricPrecision" shape-rendering="geometricPrecision" fill="none" stroke="#003a73" stroke-width="2">
  <rect fill="#ffddc7" stroke="#00600f" stroke-width="0" transform="translate(104.2844, 311.6524)scale(1.591, 2.0031)translate(-151.7395, -151.7395)" x="105.4526" y="12.4157" width="212.2381" height="167.3031"/>
  <rect fill="#47a3ff" stroke="#003a73" stroke-width="3" transform="translate(81.033, 27.3529)scale(1.591, 2.0031)translate(-46.188, -15.544)" rx="14" ry="14" y="10.0666" width="65.7291" height="21.0215"/>
  <rect fill="#ff475b" stroke="#c00013" stroke-width="3" transform="translate(223.2369, 137.6408)scale(1.591, 2.0031)translate(-46.188, -15.544)" rx="14" ry="14" x="17.3951" y="-3.8489" width="57.2163" height="20.8884"/>
  <rect fill="#64c062" stroke="#00600f" stroke-width="3" transform="translate(205.6585, 368.5801)scale(1.591, 2.0031)translate(-46.188, -15.544)" rx="14" ry="14" width="76.9802" height="26.943"/>
  <ellipse fill="#ff7e0f" stroke="#003a73" stroke-width="0" transform="translate(93.8191, 255.315)scale(1.591, 1.571)" cx="10.6964" cy="-14.4421" rx="53.6276" ry="53.6276"/>
  <rect fill="#ff8d99" stroke="#c00013" transform="translate(369.8531, 51.025)scale(1.591, 2.0031)translate(-46.188, -15.544)" rx="14" ry="14" width="56.2548" height="18.9319"/>
  <rect fill="#ff8d99" stroke="#c00013" transform="translate(368.871, 112.1254)scale(1.591, 2.0031)translate(-46.188, -15.544)" rx="14" ry="14" width="58.0312" height="19.5297"/>
  <rect fill="#ff8d99" stroke="#c00013" transform="translate(371.3472, 191.9146)scale(1.591, 2.0031)translate(-46.188, -15.544)" rx="14" ry="14" width="56.3059" height="18.9491"/>
  <path fill="none" stroke="#e64152" stroke-width="2" transform="translate(136.483, 217.0765)scale(1.591, 2.0031)" d="M-20.5556,-34.4016C-20.3695,-42.0866,24.8528,-40.9041,24.8705,-49.9837"/>
  <path fill="none" stroke="#e64152" transform="translate(255.914, 80.1238)scale(1.591, 2.0031)" d="M24.4071,-20.9321C17.5974,-20.6729,13.5122,-14.5919,14.3577,-5.5287C14.8946,0.2264,13.1897,18.7128,8.8823,18.6529"/>
  <path fill="none" stroke="#e64152" transform="translate(267.1385, 122.2252)scale(1.591, 2.0031)" d="M0,0C9.8979,0,9.1613,-1.3228,11.2106,-5.885C12.3489,-8.4193,12.9364,-10.9741,17.1658,-10.7626"/>
  <path fill="none" stroke="#e64152" transform="translate(268.9822, 122.8182)scale(1.591, 2.0031)" d="M0,0C10.9548,-0.5922,6.8453,26.4829,18.9846,27.3711"/>
  <path fill="none" stroke="#00600f" transform="translate(105.4472, 316.3968)scale(1.591, 2.0031)" d="M0,0C1.4803,20.1333,16.5802,-0.5922,18.0607,17.4685"/>
  <path fill="none" stroke="#003a73" transform="translate(55.462, 62.3378)scale(1.591, 2.0031)" d="M0,0C1.4543,35.9358,29.0849,8.6246,29.8121,42.4043"/>
</svg>
